# xmcd CD database file
#
# Track frame offsets:
#	150
#	10170
#	30381
#	41363
#	57360
#	67687
#	79582
#	98422
#	109696
#
# Disc length: 1827 seconds
#
# Revision: 0
# Processed by: cddbd v1.5.2PL0 Copyright (c) Steve Scherf et al.
# Submitted via: CDex 1.51
#
DISCID=57072109
DTITLE=The Trailblazers Quartet - Blazes of Gold - Tenor Richard Brown
DYEAR=1991
DGENRE=Country
TTITLE0=Double Dose
TTITLE1=Saving Kind
TTITLE2=I'll Live Again
TTITLE3=When Your Back is to the Wall
TTITLE4=The Church is Going Higher
TTITLE5=I'm Winging My Way
TTITLE6=Beulah Land
TTITLE7=New Wine
TTITLE8=Jesus Is Coming/He's Still in the Fire
EXTD=YEAR: 1991
EXTT0=
EXTT1=
EXTT2=
EXTT3=
EXTT4=
EXTT5=
EXTT6=
EXTT7=
EXTT8=
PLAYORDER=
